<svg width="800" height="800" viewBox="0 0 800 800" fill="none" xmlns="http://www.w3.org/2000/svg">
<path d="M0 400C1.06667 402.133 2.4 405.067 4 408.8C5.6 412.533 9.6 420.267 16 432C22.4 443.733 29.3333 454.933 36.8 465.6C44.2667 476.267 54.6667 489.067 68 504C81.3333 518.933 95.2 533.067 109.6 546.4C124 559.733 141.867 572.8 163.2 585.6C184.533 598.4 206.4 609.6 228.8 619.2C251.2 628.8 277.333 636.267 307.2 641.6C337.067 646.933 368 649.867 400 650.4C432 650.933 462.933 648 492.8 641.6C522.667 635.2 549.067 627.467 572 618.4C594.933 609.333 616.533 598.4 636.8 585.6C657.067 572.8 674.933 559.467 690.4 545.6C705.867 531.733 719.733 518.133 732 504.8C744.267 491.467 754.667 478.133 763.2 464.8C771.733 451.467 778.667 440.533 784 432C789.333 423.467 793.333 415.733 796 408.8L800 400C799.467 397.867 798.133 394.933 796 391.2C793.867 387.467 789.867 380 784 368.8C778.133 357.6 771.2 346.4 763.2 335.2C755.2 324 744.8 310.933 732 296C719.2 281.067 705.333 267.2 690.4 254.4C675.467 241.6 657.6 228.533 636.8 215.2C616 201.867 594.133 190.667 571.2 181.6C548.267 172.533 522.133 165.067 492.8 159.2C463.467 153.333 432.533 150.4 400 150.4C367.467 150.4 336.533 153.333 307.2 159.2C277.867 165.067 251.467 172.533 228 181.6C204.533 190.667 182.933 201.867 163.2 215.2C143.467 228.533 125.6 241.6 109.6 254.4C93.6 267.2 79.7333 281.067 68 296C56.2667 310.933 45.8667 324 36.8 335.2C27.7333 346.4 20.8 357.6 16 368.8C11.2 380 7.2 387.733 4 392L0 400ZM250.4 400C250.4 358.933 264.8 323.733 293.6 294.4C322.4 265.067 357.867 250.4 400 250.4C442.133 250.4 477.6 265.067 506.4 294.4C535.2 323.733 549.867 358.933 550.4 400C550.933 441.067 536.267 476.533 506.4 506.4C476.533 536.267 441.067 550.933 400 550.4C358.933 549.867 323.467 535.2 293.6 506.4C263.733 477.6 249.333 442.133 250.4 400ZM300 400C300 427.733 309.867 451.467 329.6 471.2C349.333 490.933 372.8 500.533 400 500C427.2 499.467 450.667 489.867 470.4 471.2C490.133 452.533 500 428.8 500 400C500 371.2 490.133 347.733 470.4 329.6C450.667 311.467 427.2 301.6 400 300C372.8 298.4 349.333 308.267 329.6 329.6L400 400H300Z" fill="white"/>
</svg>
