<svg width="40" height="52" viewBox="0 0 40 52" fill="none" xmlns="http://www.w3.org/2000/svg">
<path d="M28.0402 14.8197L22.2802 10.7897C20.7102 9.68969 18.3002 9.74969 16.7902 10.9197L11.7802 14.8297C10.7802 15.6097 9.99023 17.2097 9.99023 18.4697V25.3697C9.99023 27.9197 12.0602 29.9997 14.6102 29.9997H25.3902C27.9402 29.9997 30.0102 27.9297 30.0102 25.3797V18.5997C30.0102 17.2497 29.1402 15.5897 28.0402 14.8197ZM20.7502 25.9997C20.7502 26.4097 20.4102 26.7497 20.0002 26.7497C19.5902 26.7497 19.2502 26.4097 19.2502 25.9997V22.9997C19.2502 22.5897 19.5902 22.2497 20.0002 22.2497C20.4102 22.2497 20.7502 22.5897 20.7502 22.9997V25.9997Z" fill="white"/>
<path d="M20 44C21.1046 44 22 43.1046 22 42C22 40.8954 21.1046 40 20 40C18.8954 40 18 40.8954 18 42C18 43.1046 18.8954 44 20 44Z" fill="#FF2882"/>
</svg>
