<svg width="40" height="52" viewBox="0 0 40 52" fill="none" xmlns="http://www.w3.org/2000/svg">
<path d="M28.0402 14.82L22.2802 10.79C20.7102 9.69 18.3002 9.75 16.7902 10.92L11.7802 14.83C10.7802 15.61 9.99023 17.21 9.99023 18.47V25.37C9.99023 27.92 12.0602 30 14.6102 30H25.3902C27.9402 30 30.0102 27.93 30.0102 25.38V18.6C30.0102 17.25 29.1402 15.59 28.0402 14.82ZM20.7502 26C20.7502 26.41 20.4102 26.75 20.0002 26.75C19.5902 26.75 19.2502 26.41 19.2502 26V23C19.2502 22.59 19.5902 22.25 20.0002 22.25C20.4102 22.25 20.7502 22.59 20.7502 23V26Z" fill="#1C1C1E"/>
<circle cx="20" cy="42" r="2" fill="#FF2882"/>
</svg>
