<svg width="24" height="24" viewBox="0 0 24 24" fill="none" xmlns="http://www.w3.org/2000/svg">
<circle cx="12" cy="7" r="5.25" fill="#8E8E93" stroke="#8E8E93" stroke-width="1.5"/>
<path d="M21.25 22C21.25 22.2613 21.2492 22.4384 21.2343 22.584C21.2201 22.7239 21.1973 22.7755 21.1881 22.792C21.188 22.7922 21.1879 22.7924 21.1878 22.7927C21.185 22.7981 21.1736 22.8199 21.1084 22.8561C21.0265 22.9016 20.8755 22.9601 20.6029 23.0146C20.0501 23.1251 19.1733 23.1876 17.7646 23.2189C16.3687 23.25 14.5037 23.25 12 23.25C9.4963 23.25 7.63131 23.25 6.23541 23.2189C4.82669 23.1876 3.94985 23.1251 3.39709 23.0146C3.12452 22.9601 2.97347 22.9016 2.89158 22.8561C2.82641 22.8199 2.81503 22.7981 2.81224 22.7927C2.8121 22.7924 2.81197 22.7922 2.81187 22.792C2.80267 22.7755 2.77993 22.7239 2.76566 22.584C2.7508 22.4384 2.75 22.2613 2.75 22C2.75 19.9891 2.78812 18.5861 3.78385 17.577C4.79995 16.5473 7.01062 15.75 12 15.75C16.9894 15.75 19.2001 16.5473 20.2162 17.577C21.2119 18.5861 21.25 19.9891 21.25 22Z" fill="#8E8E93" stroke="#8E8E93" stroke-width="1.5"/>
</svg>
