<svg width="24" height="24" viewBox="0 0 24 24" fill="none" xmlns="http://www.w3.org/2000/svg">
<circle cx="12" cy="8" r="5.25" stroke="#8E8E93" stroke-width="1.5"/>
<path d="M21.25 19C21.25 19.4462 21.2391 19.6776 21.1561 19.8684C21.0949 20.009 20.952 20.2159 20.4512 20.4334C19.9288 20.6603 19.0789 20.8698 17.7008 21.0186C16.3319 21.1664 14.4865 21.25 12 21.25C9.51349 21.25 7.66812 21.1664 6.29925 21.0186C4.9211 20.8698 4.07124 20.6603 3.54877 20.4334C3.04797 20.2159 2.90514 20.009 2.84391 19.8684C2.76085 19.6776 2.75 19.4462 2.75 19C2.75 18.5538 2.76085 18.3224 2.84391 18.1316C2.90514 17.991 3.04797 17.7841 3.54877 17.5666C4.07124 17.3397 4.9211 17.1302 6.29925 16.9814C7.66812 16.8336 9.51349 16.75 12 16.75C14.4865 16.75 16.3319 16.8336 17.7008 16.9814C19.0789 17.1302 19.9288 17.3397 20.4512 17.5666C20.952 17.7841 21.0949 17.991 21.1561 18.1316C21.2391 18.3224 21.25 18.5538 21.25 19Z" stroke="#8E8E93" stroke-width="1.5"/>
</svg>
