<svg width="24" height="33" viewBox="0 0 24 33" fill="none" xmlns="http://www.w3.org/2000/svg">
<path d="M12 33C13.1046 33 14 32.1046 14 31C14 29.8954 13.1046 29 12 29C10.8954 29 10 29.8954 10 31C10 32.1046 10.8954 33 12 33Z" fill="#FF2882"/>
<path d="M12 14C15.3137 14 18 11.3137 18 8C18 4.68629 15.3137 2 12 2C8.68629 2 6 4.68629 6 8C6 11.3137 8.68629 14 12 14Z" fill="white"/>
<path d="M22 19C22 20.6569 22 22 12 22C2 22 2 20.6569 2 19C2 17.3431 2 16 12 16C22 16 22 17.3431 22 19Z" fill="white"/>
</svg>
