<svg width="24" height="36" viewBox="0 0 24 36" fill="none" xmlns="http://www.w3.org/2000/svg">
<path d="M12 36C13.1046 36 14 35.1046 14 34C14 32.8954 13.1046 32 12 32C10.8954 32 10 32.8954 10 34C10 35.1046 10.8954 36 12 36Z" fill="#FF2882"/>
<path d="M2 7C2 4.23858 4.23858 2 7 2H17C19.7614 2 22 4.23858 22 7V17C22 19.7614 19.7614 22 17 22H7C4.23858 22 2 19.7614 2 17V7Z" fill="white"/>
<path d="M9 7C9 6.44772 8.55228 6 8 6C7.44772 6 7 6.44772 7 7V17C7 17.5523 7.44772 18 8 18C8.55228 18 9 17.5523 9 17V7Z" fill="#181818"/>
<path d="M13 11C13 10.4477 12.5523 10 12 10C11.4477 10 11 10.4477 11 11V17C11 17.5523 11.4477 18 12 18C12.5523 18 13 17.5523 13 17V11Z" fill="#181818"/>
<path d="M17 15C17 14.4477 16.5523 14 16 14C15.4477 14 15 14.4477 15 15V17C15 17.5523 15.4477 18 16 18C16.5523 18 17 17.5523 17 17V15Z" fill="#181818"/>
</svg>
