<svg width="22" height="22" viewBox="0 0 22 22" fill="none" xmlns="http://www.w3.org/2000/svg">
<g clip-path="url(#clip0_708_1803)">
<path fill-rule="evenodd" clip-rule="evenodd" d="M9.625 16.5V13.75L4.125 17.875L9.625 22V19.25H13.7459C15.934 19.2489 18.0322 18.3795 19.5798 16.8327C21.1274 15.2859 21.9978 13.1881 22 11H19.25C19.25 12.4577 18.6713 13.8559 17.641 14.8871C16.6108 15.9184 15.2132 16.4985 13.7555 16.5H9.625ZM12.375 2.75H8.25412C6.06604 2.75109 3.96783 3.6205 2.42024 5.16732C0.872647 6.71415 0.00218562 8.81192 0 11H2.75C2.75 9.54226 3.32871 8.14415 4.35897 7.11286C5.38923 6.08156 6.78676 5.50146 8.2445 5.5H12.375V8.25L17.875 4.125L12.375 0V2.75Z" fill="#FF4747"/>
</g>
<path fill-rule="evenodd" clip-rule="evenodd" d="M12.375 2.75H8.25412C6.06604 2.75109 3.96783 3.6205 2.42024 5.16733C0.872647 6.71415 0.00218562 8.81192 0 11H2.75C2.75 9.54226 3.32871 8.14415 4.35897 7.11286C5.38923 6.08156 6.78676 5.50146 8.2445 5.5H12.375V8.25L17.875 4.125L12.375 0V2.75Z" fill="#00C566"/>
<defs>
<clipPath id="clip0_708_1803">
<rect width="22" height="22" fill="white"/>
</clipPath>
</defs>
</svg>
