<svg width="24" height="24" viewBox="0 0 24 24" fill="none" xmlns="http://www.w3.org/2000/svg">
<path d="M19.7201 6.47997L19.7301 6.45997" stroke="#FF4747" stroke-width="1.5" stroke-linecap="round" stroke-linejoin="round"/>
<path d="M14.87 2.93L14.86 2.94" stroke="#FF4747" stroke-width="1.5" stroke-linecap="round" stroke-linejoin="round"/>
<path d="M21.5 11.92V11.91" stroke="#FF4747" stroke-width="1.5" stroke-linecap="round" stroke-linejoin="round"/>
<path d="M2.5 11.91V11.92" stroke="#FF4747" stroke-width="1.5" stroke-linecap="round" stroke-linejoin="round"/>
<path d="M4.2699 6.45997L4.2799 6.47997" stroke="#FF4747" stroke-width="1.5" stroke-linecap="round" stroke-linejoin="round"/>
<path d="M9.14001 2.94L9.13001 2.93" stroke="#FF4747" stroke-width="1.5" stroke-linecap="round" stroke-linejoin="round"/>
<path d="M18.7175 5.28249C22.4275 8.99247 22.4275 15.0075 18.7175 18.7175C15.0075 22.4275 8.99243 22.4275 5.28249 18.7175C1.5725 15.0075 1.5725 8.99243 5.28249 5.28249C8.99247 1.5725 15.0075 1.5725 18.7175 5.28249" stroke="#FF4747" stroke-width="1.5" stroke-linecap="round" stroke-linejoin="round"/>
<path d="M15.8899 10.75L17.8899 10.1" stroke="#FF4747" stroke-width="1.5" stroke-linecap="round" stroke-linejoin="round"/>
<path d="M21.4431 12.844L17.8921 10.096L19.1501 5.78601" stroke="#FF4747" stroke-width="1.5" stroke-linecap="round" stroke-linejoin="round"/>
<path d="M12 7.93001V5.82001" stroke="#FF4747" stroke-width="1.5" stroke-linecap="round" stroke-linejoin="round"/>
<path d="M15.7111 3.28802L12.0001 5.81502L8.28906 3.28802" stroke="#FF4747" stroke-width="1.5" stroke-linecap="round" stroke-linejoin="round"/>
<path d="M14.3999 15.31L15.6399 17.02" stroke="#FF4747" stroke-width="1.5" stroke-linecap="round" stroke-linejoin="round"/>
<path d="M14.125 21.249L15.642 17.023L20.129 16.887" stroke="#FF4747" stroke-width="1.5" stroke-linecap="round" stroke-linejoin="round"/>
<path d="M8.11011 10.75L6.11011 10.1" stroke="#FF4747" stroke-width="1.5" stroke-linecap="round" stroke-linejoin="round"/>
<path d="M2.55688 12.844L6.10788 10.096L4.84988 5.78601" stroke="#FF4747" stroke-width="1.5" stroke-linecap="round" stroke-linejoin="round"/>
<path d="M9.60011 15.31L8.36011 17.02" stroke="#FF4747" stroke-width="1.5" stroke-linecap="round" stroke-linejoin="round"/>
<path d="M9.87509 21.249L8.35809 17.023L3.87109 16.887" stroke="#FF4747" stroke-width="1.5" stroke-linecap="round" stroke-linejoin="round"/>
<path fill-rule="evenodd" clip-rule="evenodd" d="M12 7.92603L15.885 10.749L14.401 15.315H9.59899L8.11499 10.749L12 7.92603Z" stroke="#FF4747" stroke-width="1.5" stroke-linecap="round" stroke-linejoin="round"/>
</svg>
