<svg width="24" height="24" viewBox="0 0 24 24" fill="none" xmlns="http://www.w3.org/2000/svg">
<path d="M16 12.69V18.08C16 20.42 14.44 21.97 12.11 21.97H5.89C3.56 21.97 2 20.42 2 18.08V10.31C2 7.97001 3.56 6.42001 5.89 6.42001H9.72C10.75 6.42001 11.74 6.83001 12.47 7.56001L14.86 9.94001C15.59 10.67 16 11.66 16 12.69Z" fill="#FACC15"/>
<path d="M21.9995 8.25V13.64C21.9995 15.97 20.4395 17.53 18.1095 17.53H16.9995V12.69C16.9995 11.4 16.4795 10.14 15.5695 9.23L13.1795 6.85C12.2695 5.94 11.0095 5.42 9.71953 5.42H8.01953C8.19953 3.34 9.70953 1.97 11.8895 1.97H15.7195C16.7495 1.97 17.7395 2.38 18.4695 3.11L20.8595 5.5C21.5895 6.23 21.9995 7.22 21.9995 8.25Z" fill="#38384C"/>
</svg>
