<svg width="204" height="142" viewBox="0 0 204 142" fill="none" xmlns="http://www.w3.org/2000/svg">
<path d="M101.937 0.222656C101.937 0.222656 38.7186 0.222712 22.8516 4.3457C14.3558 6.7195 7.36015 13.7152 4.98632 22.3359C0.863371 38.203 0.863281 71.0625 0.863281 71.0625C0.863281 71.0625 0.863371 104.047 4.98632 119.664C7.36015 128.285 14.2308 135.155 22.8516 137.529C38.8436 141.777 101.937 141.777 101.937 141.777C101.937 141.777 165.282 141.777 181.148 137.654C189.769 135.28 196.64 128.535 198.889 119.789C203.137 104.047 203.137 71.1875 203.137 71.1875C203.137 71.1875 203.262 38.203 198.889 22.3359C196.64 13.7152 189.769 6.8446 181.148 4.5957C165.282 0.222854 101.937 0.222656 101.937 0.222656ZM81.8223 40.7031L134.422 71.0625L81.8223 101.297V40.7031Z" fill="#FF0000"/>
</svg>
